<?xml version="1.0" encoding="utf-8"?>
<!-- Generator: Adobe Illustrator 25.0.0, SVG Export Plug-In . SVG Version: 6.00 Build 0)  -->
<svg version="1.1" id="Layer_1" xmlns="http://www.w3.org/2000/svg" xmlns:xlink="http://www.w3.org/1999/xlink" x="0px" y="0px"
	 viewBox="0 0 600 600" style="enable-background:new 0 0 600 600;" xml:space="preserve">
<style type="text/css">
	.st0{fill:#871F41;}
	.st1{fill:#E77724;}
</style>
<g>
	<path class="st0" d="M177.67,267.09c-8.95,0-17.18,4.91-21.44,12.78l-5.25,9.7l-0.61,1.13l-0.59,1.09l-15.84,29.28l-25.86-48.34
		h11.5l9.26,17.22l4.86,9.04l5.02-8.95l9.7-17.31h8.39c2.02-2.26,4.39-4.15,7-5.64h-18.69l-11.32,20.19l-10.86-20.19H98.67
		l35.24,65.87l19.62-36.26l3.25-6.01l0.61-1.13l3.77-6.97c0.2-0.38,0.42-0.75,0.65-1.11c2.52-3.98,6.41-6.83,10.86-8.07
		c1.21-0.34,2.47-0.55,3.75-0.64c0.43-0.03,0.86-0.04,1.29-0.04h51.36l-5.19,9.66h-23.76l-1.59,2.99l-21.99,41.31h-11.66
		l19.28-35.81l4.47-8.31H165.5c-1.32,2.09-3.21,5.64-3.21,5.64h16.92l-23.76,44.12h24.48l23.58-44.3h23.75l11.23-20.94H177.67z"/>
	<rect x="254.26" y="267.09" class="st1" width="1.88" height="65.86"/>
	<g>
		<path class="st0" d="M282.31,305.19l-6.76-14.14l0.18,2.62v22.37h-3.82v-32.01h4.22l7.56,16.14l7.6-16.14h4.22v32.01h-3.82v-22.32
			l0.13-2.58l-6.76,14.05H282.31z"/>
		<path class="st0" d="M298.76,316.03l8.05-32.01h4.67l8.05,32.01h-4.05l-1.73-7.38h-9.2l-1.73,7.38H298.76z M305.39,305.01h7.51
			l-3.73-16.18L305.39,305.01z"/>
		<path class="st0" d="M327.13,316.03v-28.55h-6.85v-3.47h17.7v3.47h-6.8v28.55H327.13z"/>
		<path class="st0" d="M341.27,316.03v-32.01h4.05v13.74h9.52v-13.74h4v32.01h-4v-14.81h-9.52v14.81H341.27z"/>
		<path class="st0" d="M379.69,316.03h-15.07v-32.01h15.07v3.47h-11.03v10.27h8.45v3.47h-8.45v11.34h11.03V316.03z"/>
		<path class="st0" d="M394.36,305.19l-6.76-14.14l0.18,2.62v22.37h-3.82v-32.01h4.22l7.56,16.14l7.6-16.14h4.22v32.01h-3.82v-22.32
			l0.13-2.58l-6.76,14.05H394.36z"/>
		<path class="st0" d="M410.81,316.03l8.05-32.01h4.67l8.05,32.01h-4.05l-1.73-7.38h-9.2l-1.73,7.38H410.81z M417.43,305.01h7.51
			l-3.73-16.18L417.43,305.01z"/>
		<path class="st0" d="M439.18,316.03v-28.55h-6.85v-3.47h17.7v3.47h-6.8v28.55H439.18z"/>
		<path class="st0" d="M453.31,316.03v-32.01h4.05v32.01H453.31z"/>
		<path class="st0" d="M471.59,313.01c2.89,0,4.76-1.2,4.76-4.22v-4.31h3.78v5.07c0,4.4-3.38,6.94-8.71,6.94
			c-5.29,0-8.58-2.53-8.58-6.94v-19.03c0-4.4,3.42-6.94,8.76-6.94c5.25,0,8.54,2.53,8.54,6.94v5.07h-3.78v-4.31
			c0-2.8-1.87-4.22-4.76-4.22c-3.25,0-4.71,1.42-4.71,4.22v17.52C466.88,311.81,468.34,313.01,471.59,313.01z"/>
		<path class="st0" d="M501.33,308.52c0,5.6-2.76,7.96-7.78,7.96h-2.04c-4.71,0-7.29-1.82-7.29-6.49v-3.78h3.87v2.8
			c0,3.29,1.16,4.09,3.56,4.09h1.73c2.45,0,4-0.49,4-4.4v-2.49c0-2.27-0.8-3.78-3.47-4.45l-3.65-0.89c-3.78-0.89-5.6-2.53-5.6-7.83
			v-2c0-4.89,2.62-7.47,7.38-7.47h0.84c4.67,0,7.6,2.36,7.6,6.49v3.47h-3.87v-2.67c0-2.8-1.42-3.91-3.74-3.91h-0.76
			c-2.45,0-3.56,1.07-3.56,4.36v1.51c0,3.07,0.53,3.78,3.02,4.45l3.38,0.84c4.85,1.29,6.36,3.42,6.36,8.18V308.52z"/>
	</g>
	<g>
		<path class="st0" d="M274.98,277.5c1.09,0,1.81-0.46,1.81-1.61v-1.56h1.18v1.8c0,1.56-1.2,2.46-3.05,2.46
			c-1.84,0-3.01-0.9-3.01-2.46v-6.74c0-1.56,1.2-2.46,3.07-2.46c1.83,0,2.99,0.9,2.99,2.46v1.8h-1.18v-1.56
			c0-1.07-0.72-1.61-1.81-1.61c-1.24,0-1.81,0.54-1.81,1.61v6.27C273.17,277.04,273.74,277.5,274.98,277.5z"/>
		<path class="st0" d="M286.46,269.55v6.42c0,1.65-1.17,2.61-3.18,2.61c-2.03,0-3.21-0.96-3.21-2.61v-6.42
			c0-1.65,1.18-2.61,3.21-2.61C285.3,266.93,286.46,267.89,286.46,269.55z M281.33,269.89v5.73c0,1.34,0.6,1.87,1.95,1.87
			c1.32,0,1.94-0.54,1.94-1.87v-5.73c0-1.34-0.61-1.87-1.94-1.87C281.93,268.02,281.33,268.55,281.33,269.89z"/>
		<path class="st0" d="M293.82,278.43h-5.12v-11.34h1.26v10.27h3.86V278.43z"/>
		<path class="st0" d="M300.35,278.43h-5.12v-11.34h1.26v10.27h3.86V278.43z"/>
		<path class="st0" d="M307.08,278.43h-5.21v-11.34h5.21v1.09h-3.95v3.84h3.02v1.09h-3.02v4.25h3.95V278.43z"/>
		<path class="st0" d="M314.32,278.43l-0.32-0.72c-0.47,0.57-1.26,0.88-2.24,0.88c-1.81,0-2.96-0.9-2.96-2.46v-6.74
			c0-1.56,1.21-2.46,3.12-2.46c1.86,0,3.05,0.9,3.05,2.46v1.8h-1.2v-1.56c0-1.07-0.74-1.61-1.86-1.61c-1.28,0-1.86,0.54-1.86,1.61
			v6.19c0,1.15,0.58,1.69,1.86,1.69c1.09,0,1.81-0.5,1.86-1.59v-1.97h-1.86v-1.09h3.05v5.57H314.32z"/>
		<path class="st0" d="M322.42,278.43h-5.21v-11.34h5.21v1.09h-3.95v3.84h3.02v1.09h-3.02v4.25h3.95V278.43z"/>
		<path class="st0" d="M333.63,269.55v6.42c0,1.65-1.17,2.61-3.18,2.61c-2.03,0-3.21-0.96-3.21-2.61v-6.42
			c0-1.65,1.18-2.61,3.21-2.61C332.46,266.93,333.63,267.89,333.63,269.55z M328.49,269.89v5.73c0,1.34,0.6,1.87,1.95,1.87
			c1.32,0,1.94-0.54,1.94-1.87v-5.73c0-1.34-0.61-1.87-1.94-1.87C329.09,268.02,328.49,268.55,328.49,269.89z"/>
		<path class="st0" d="M335.96,278.43v-11.34h5.21v1.09h-3.95v4.31h3.02v1.09h-3.02v4.85H335.96z"/>
		<path class="st0" d="M351.46,275.84c0,1.92-0.96,2.74-2.71,2.74h-0.74c-1.62,0-2.52-0.65-2.52-2.3v-1.31h1.2V276
			c0,1.21,0.44,1.53,1.37,1.53h0.63c0.94,0,1.54-0.17,1.54-1.65v-0.9c0-0.87-0.3-1.45-1.31-1.7l-1.35-0.33
			c-1.29-0.3-1.92-0.85-1.92-2.68v-0.74c0-1.7,0.9-2.6,2.55-2.6h0.31c1.62,0,2.63,0.83,2.63,2.3v1.24h-1.18v-1.01
			c0-1.07-0.58-1.48-1.45-1.48h-0.28c-0.93,0-1.37,0.39-1.37,1.64v0.57c0,1.15,0.21,1.4,1.13,1.65l1.28,0.31
			c1.65,0.44,2.19,1.23,2.19,2.83V275.84z"/>
		<path class="st0" d="M356.42,277.5c1.09,0,1.81-0.46,1.81-1.61v-1.56h1.18v1.8c0,1.56-1.2,2.46-3.06,2.46
			c-1.84,0-3.01-0.9-3.01-2.46v-6.74c0-1.56,1.2-2.46,3.07-2.46c1.83,0,2.99,0.9,2.99,2.46v1.8h-1.18v-1.56
			c0-1.07-0.72-1.61-1.81-1.61c-1.24,0-1.81,0.54-1.81,1.61v6.27C354.61,277.04,355.17,277.5,356.42,277.5z"/>
		<path class="st0" d="M361.61,278.43v-11.34h1.26v11.34H361.61z"/>
		<path class="st0" d="M370.51,278.43h-5.21v-11.34h5.21v1.09h-3.95v3.84h3.02v1.09h-3.02v4.25h3.95V278.43z"/>
		<path class="st0" d="M372.35,278.43v-11.34h1.01l3.92,7.97l0.36,0.93l-0.03-0.88v-8.02h1.15v11.34h-1.01l-3.92-7.98l-0.38-0.96
			l0.05,0.85v8.09H372.35z"/>
		<path class="st0" d="M384.15,277.5c1.09,0,1.81-0.46,1.81-1.61v-1.56h1.18v1.8c0,1.56-1.2,2.46-3.06,2.46
			c-1.84,0-3.01-0.9-3.01-2.46v-6.74c0-1.56,1.2-2.46,3.07-2.46c1.83,0,2.99,0.9,2.99,2.46v1.8h-1.18v-1.56
			c0-1.07-0.72-1.61-1.81-1.61c-1.24,0-1.81,0.54-1.81,1.61v6.27C382.34,277.04,382.91,277.5,384.15,277.5z"/>
		<path class="st0" d="M394.56,278.43h-5.21v-11.34h5.21v1.09h-3.95v3.84h3.02v1.09h-3.02v4.25h3.95V278.43z"/>
	</g>
	<g>
		<g>
			<polygon class="st1" points="352.83,323.7 352.83,321.72 361.5,321.72 361.5,323.7 358.2,323.7 358.2,332.96 356.14,332.96 
				356.14,323.7 			"/>
			<polygon class="st1" points="370.43,332.96 363.22,332.96 363.22,321.73 370.43,321.73 370.43,323.69 365.27,323.69 
				365.27,326.31 369.46,326.31 369.46,328.28 365.27,328.28 365.27,330.99 370.43,330.99 			"/>
			<path class="st1" d="M373.84,327.34c0,0.51,0.1,0.99,0.29,1.43c0.2,0.45,0.46,0.84,0.8,1.17c0.34,0.33,0.73,0.59,1.18,0.79
				c0.45,0.19,0.92,0.29,1.43,0.29c0.39,0,0.76-0.06,1.11-0.18c0.35-0.12,0.67-0.28,0.97-0.48c0.12-0.07,0.24-0.13,0.37-0.17
				c0.13-0.04,0.27-0.06,0.42-0.06c0.23,0,0.43,0.04,0.6,0.11c0.16,0.07,0.32,0.18,0.46,0.32l0.48,0.48
				c-0.29,0.31-0.61,0.6-0.95,0.85c-0.34,0.25-0.7,0.47-1.07,0.64c-0.37,0.18-0.76,0.31-1.16,0.41c-0.4,0.09-0.81,0.14-1.22,0.14
				c-0.79,0-1.54-0.15-2.24-0.45c-0.7-0.3-1.31-0.71-1.83-1.23c-0.52-0.52-0.93-1.12-1.23-1.82c-0.3-0.69-0.45-1.44-0.45-2.23
				c0-0.53,0.07-1.04,0.2-1.52c0.14-0.49,0.33-0.94,0.58-1.37c0.25-0.42,0.55-0.81,0.9-1.16c0.35-0.35,0.74-0.65,1.16-0.9
				c0.43-0.25,0.89-0.44,1.38-0.58c0.49-0.14,1-0.2,1.53-0.2c0.42,0,0.83,0.05,1.22,0.14c0.4,0.09,0.79,0.23,1.16,0.41
				c0.37,0.18,0.73,0.39,1.07,0.64c0.34,0.25,0.65,0.53,0.95,0.85l-0.48,0.48c-0.14,0.14-0.29,0.24-0.47,0.33
				c-0.17,0.08-0.37,0.12-0.59,0.12c-0.29,0-0.55-0.08-0.79-0.25c-0.3-0.2-0.63-0.36-0.97-0.48c-0.35-0.11-0.72-0.17-1.1-0.17
				c-0.51,0-0.98,0.1-1.43,0.29c-0.45,0.19-0.84,0.46-1.18,0.79c-0.34,0.33-0.6,0.72-0.8,1.16
				C373.94,326.36,373.84,326.83,373.84,327.34"/>
			<polygon class="st1" points="393.84,332.96 391.78,332.96 391.78,328.3 386.26,328.3 386.26,332.96 384.21,332.96 384.21,321.73 
				386.26,321.73 386.26,326.34 391.78,326.34 391.78,321.73 393.84,321.73 			"/>
			<path class="st1" d="M277.87,329.55c0,0,1.01-2.32,1.52-3.48c0.51-1.15,1.01-2.31,1.52-3.48c0.11-0.27,0.29-0.48,0.54-0.63
				c0.24-0.15,0.51-0.23,0.8-0.23h1.28l-4.9,11.23h-1.86l-4.9-11.23h1.27c0.14,0,0.28,0.02,0.42,0.06c0.14,0.04,0.27,0.1,0.39,0.18
				c0.12,0.08,0.23,0.17,0.32,0.27c0.09,0.1,0.17,0.22,0.22,0.34l3.03,6.95l0.18,0.41L277.87,329.55z"/>
			<rect x="285.26" y="321.73" class="st1" width="2.06" height="11.23"/>
			<path class="st1" d="M310.4,326.95v4.71c-0.28,0.28-0.59,0.51-0.92,0.7c-0.33,0.18-0.67,0.33-1.04,0.43
				c-0.36,0.11-0.74,0.18-1.12,0.22c-0.39,0.04-0.78,0.06-1.18,0.06c-0.79,0-1.54-0.15-2.23-0.45c-0.69-0.3-1.3-0.71-1.83-1.23
				c-0.52-0.52-0.93-1.12-1.23-1.82c-0.3-0.7-0.45-1.44-0.45-2.24c0-0.53,0.07-1.03,0.2-1.52c0.14-0.49,0.33-0.94,0.58-1.37
				c0.25-0.42,0.55-0.81,0.9-1.16c0.35-0.35,0.74-0.65,1.16-0.9c0.43-0.25,0.88-0.44,1.37-0.58c0.49-0.13,1-0.2,1.52-0.2
				c0.42,0,0.83,0.05,1.23,0.14c0.4,0.09,0.79,0.23,1.16,0.41s0.73,0.39,1.06,0.64c0.34,0.25,0.66,0.53,0.95,0.85l-0.47,0.48
				c-0.15,0.15-0.3,0.27-0.47,0.34c-0.17,0.07-0.36,0.11-0.58,0.11c-0.29,0-0.56-0.08-0.8-0.25c-0.3-0.2-0.62-0.36-0.97-0.48
				c-0.35-0.11-0.72-0.17-1.11-0.17c-0.5,0-0.98,0.1-1.42,0.29c-0.45,0.19-0.84,0.46-1.18,0.79c-0.34,0.33-0.6,0.72-0.8,1.16
				c-0.2,0.44-0.29,0.92-0.29,1.42c0,0.52,0.1,1,0.31,1.45c0.2,0.45,0.48,0.84,0.82,1.17c0.35,0.33,0.75,0.59,1.2,0.78
				c0.46,0.19,0.94,0.28,1.44,0.28c0.25-0.01,0.49-0.03,0.75-0.06c0.21-0.03,0.44-0.08,0.69-0.15c0.24-0.07,0.47-0.17,0.67-0.29
				v-1.58c-0.22-0.01-0.43-0.01-0.65-0.01c-0.21,0-0.4-0.04-0.56-0.12c-0.17-0.08-0.3-0.21-0.39-0.4c-0.1-0.19-0.15-0.46-0.15-0.83
				v-0.63H310.4z"/>
			<rect x="313.72" y="321.73" class="st1" width="2.06" height="11.23"/>
			<path class="st1" d="M321.22,324.56v8.4h-2.05v-11.23h1.81c0.25,0,0.47,0.04,0.66,0.11c0.19,0.07,0.34,0.19,0.45,0.34
				c0.78,1.11,4.99,7.06,4.99,7.06v-7.51h2.05v11.23h-1.9L321.22,324.56z"/>
			<rect x="332.53" y="321.73" class="st1" width="2.06" height="11.23"/>
			<path class="st1" d="M343.08,321.73h-1.86l-4.91,11.23h1.28c0.14,0,0.28-0.02,0.42-0.06s0.27-0.1,0.39-0.18
				c0.12-0.08,0.23-0.17,0.32-0.27c0.09-0.1,0.17-0.22,0.22-0.35l0.66-1.52h0l1.19-2.73h0.01l1.35-3.14l1.64,3.81h-0.93
				c-0.7,0-1.33,0.41-1.61,1.05l-0.44,1.01h3.89l0.67,1.52c0.12,0.27,0.3,0.48,0.54,0.63c0.24,0.15,0.51,0.23,0.8,0.23h1.28
				L343.08,321.73z"/>
			<path class="st1" d="M292.76,332.96h-2.05v-11.23h4.22c0.54,0,1.03,0.1,1.48,0.31c0.44,0.2,0.82,0.47,1.13,0.81
				c0.31,0.34,0.56,0.72,0.73,1.15c0.17,0.43,0.26,0.87,0.26,1.32c0,0.33-0.04,0.65-0.13,0.96c-0.09,0.31-0.22,0.61-0.39,0.89
				c-0.17,0.28-0.39,0.53-0.63,0.76c-0.25,0.23-0.54,0.43-0.86,0.59c0.55,0.75,1.09,1.49,1.64,2.22c0.54,0.73,1.09,1.47,1.65,2.21
				h-1.61c-0.11,0-0.24-0.02-0.38-0.07c-0.15-0.05-0.3-0.12-0.46-0.22c-0.16-0.1-0.33-0.23-0.49-0.4c-0.17-0.16-0.34-0.36-0.5-0.59
				l-2.04-2.76h-1.54V332.96z M294.99,326.85c0.2,0,0.39-0.04,0.57-0.13c0.18-0.08,0.34-0.2,0.47-0.34c0.13-0.14,0.24-0.3,0.32-0.49
				c0.08-0.19,0.12-0.38,0.12-0.58c0-0.21-0.04-0.4-0.12-0.59c-0.08-0.19-0.18-0.35-0.32-0.49c-0.13-0.14-0.29-0.25-0.47-0.34
				c-0.18-0.08-0.37-0.13-0.57-0.13h-2.22v3.06H294.99z"/>
		</g>
		<g>
			<path class="st1" d="M395.9,330.9c0.57,0,1.03,0.46,1.03,1.03c0,0.57-0.46,1.03-1.03,1.03c-0.57,0-1.03-0.46-1.03-1.03
				C394.87,331.36,395.33,330.9,395.9,330.9z M395.9,332.85c0.5,0,0.92-0.41,0.92-0.92c0-0.51-0.41-0.92-0.92-0.92
				c-0.51,0-0.92,0.41-0.92,0.92C394.98,332.44,395.4,332.85,395.9,332.85z M396.08,332.02l0.26,0.39c0.02,0.03,0,0.05-0.03,0.05
				h-0.13c-0.03,0-0.05-0.01-0.06-0.03l-0.25-0.38h-0.12v0.38c0,0.02-0.01,0.03-0.04,0.03h-0.14c-0.03,0-0.04-0.01-0.04-0.03v-0.98
				c0-0.02,0.01-0.03,0.04-0.03h0.37c0.17,0,0.37,0.07,0.37,0.31C396.3,331.89,396.2,331.98,396.08,332.02z M395.92,331.86
				c0.11,0,0.17-0.04,0.17-0.13c0-0.09-0.05-0.13-0.17-0.13h-0.18v0.27H395.92z"/>
		</g>
	</g>
</g>
</svg>
